# xmcd
#
# Track frame offsets:
#	150
#	15757
#	30631
#	50294
#	69077
#	85336
#	99896
#	120597
#	138186
#	157386
#	176811
#	194877
#	214272
#	232097
#	245222
#	264848
#	280760
#	298957
#	316354
#	334147
#
# Disc length: 4757 seconds
#
# Revision: 1
# Processed by: cddbd v1.5.2PL0 Copyright (c) Steve Scherf et al.
# Submitted via: audiograbber 1.83.01
#
DISCID=29129314
DTITLE=Various Artist - IT'S A GOOD LIFE VOL.01 [CD]
DYEAR=2007
DGENRE=NEW
TTITLE0=Tom Gaebel - It's A Good Life
TTITLE1=Michael Buble - Love At First Sight
TTITLE2=Roger Cicero and Julia Hulsmann - Light
TTITLE3=Jamie Cullum - You and The Night and The Music
TTITLE4=Corinne Bailey Rae - Put Your Records On
TTITLE5=Michael Bolton - You Don't Know Me
TTITLE6=Reamonn - Strong
TTITLE7=Daniel Powter - Bad Day
TTITLE8=Toni Braxton - What's Good
TTITLE9=Simply Red - You Make Me Feel Brandnew
TTITLE10=Chris Rea - What Kind Of Love
TTITLE11=Christopher Cross - Sailing
TTITLE12=Chicago - If You Leave Me Now
TTITLE13=Lisa Stansfield - Say It To Me Now
TTITLE14=Tears For Fears - Last Days On Earth
TTITLE15=Renee Olstead - A Love That Will Last
TTITLE16=Rigmor Gustafson and Nils Landgren - Fire and Rain
TTITLE17=Heine Totland - Happy As I Am
TTITLE18=Viktoria Tolstoy - Upside Out
TTITLE19=Joel Harrison and Norah Jones - I Walk The Line
EXTD=
EXTT0=
EXTT1=
EXTT2=
EXTT3=
EXTT4=
EXTT5=
EXTT6=
EXTT7=
EXTT8=
EXTT9=
EXTT10=
EXTT11=
EXTT12=
EXTT13=
EXTT14=
EXTT15=
EXTT16=
EXTT17=
EXTT18=
EXTT19=
PLAYORDER=
